<svg width="220" height="60" viewBox="0 0 220 60" fill="none" xmlns="http://www.w3.org/2000/svg">
<path d="M38.3441 31.1814C38.3135 31.1486 38.2868 31.1207 38.2558 31.0879H38.2524L24.8428 17.4604L35.9926 6.03393H35.9999C36.0797 5.94894 36.15 5.87591 36.2276 5.79368L38.894 3.06101C40.9522 1.05186 41.4217 0.900902 41.4217 0.900902H41.0019H40.8135H38.7001H34.1482L21.7907 14.2586L9.58396 0.900902H4.87958H2.7658H2.67989H2.15766C2.15766 0.900902 2.81674 1.10587 6.04954 4.43011L7.4082 5.8529C7.46712 5.9158 7.51928 5.97011 7.57942 6.03393H7.58126L18.5392 17.5104L5.43342 31.0879H5.42176C5.226 31.2968 5.04589 31.4858 4.86363 31.6782L3.49944 33.0915C0.61275 36.0227 0 36.2212 0 36.2212H0.478356H0.608146H2.72193H7.33272L21.7407 20.7623L36.2494 36.2212H40.9559H43.0694H43.3032H43.6775C43.6775 36.2212 43.2885 36.0948 41.6767 34.568L38.3441 31.1814Z" fill="black"/>
<path d="M216.998 18.861C214.997 17.2271 212.162 16.2265 208.493 15.8592L197.536 14.8086C196.469 14.7083 195.586 14.5834 194.885 14.4334C194.185 14.283 193.451 14.0501 192.684 13.7329C191.916 13.4162 191.341 12.9495 190.958 12.3322C190.574 11.7154 190.383 10.956 190.383 10.0558C190.383 8.92233 190.733 7.9469 191.433 7.12888C192.134 6.31209 193.076 5.70303 194.26 5.30292C195.443 4.9025 196.669 4.61131 197.937 4.42752C199.204 4.24464 200.555 4.15229 201.989 4.15229C204.957 4.15229 207.443 4.5527 209.443 5.35293C209.681 5.44774 209.915 5.5493 210.148 5.65547L210.146 5.65669C214.719 7.91131 213.996 9.40682 213.996 9.40682L214.553 9.16442L216.506 8.35376L216.504 8.34886L219.6 7.10403C216.264 2.36866 210.377 -9.91821e-05 201.939 -9.91821e-05C196.969 -9.91821e-05 193.084 0.767597 190.283 2.30146C187.014 4.03569 185.38 6.70392 185.38 10.3058C185.38 12.7071 186.213 14.6758 187.881 16.2093C188.714 16.977 189.757 17.5772 191.008 18.0104C192.259 18.4443 193.442 18.7358 194.56 18.8858C195.677 19.0359 197.67 19.2445 200.538 19.5112L205.942 20.0113C207.209 20.1116 208.284 20.2454 209.169 20.4117C210.052 20.579 210.994 20.8542 211.995 21.2371C212.996 21.621 213.754 22.1797 214.271 22.913C214.788 23.6473 215.047 24.5475 215.047 25.6147C215.047 27.5493 214.246 29.1341 212.646 30.3673C210.544 31.9683 207.392 32.7689 203.19 32.7689C199.188 32.7689 195.802 32.2021 193.034 31.0681C192.589 30.8901 192.174 30.7042 191.782 30.513C191.295 30.2672 190.861 30.0291 190.493 29.8033C190.49 29.8015 190.488 29.8002 190.485 29.7984C187.562 28.0025 188.116 26.858 188.116 26.858L187.558 27.1001L185.608 27.9108L182.778 29.0666C184.446 31.802 187.081 33.8195 190.683 35.1201C194.285 36.4211 198.287 37.0713 202.69 37.0713C205.958 37.0713 208.776 36.7292 211.145 36.0455C213.512 35.3625 215.313 34.4448 216.548 33.2945C217.781 32.1435 218.665 30.9349 219.2 29.6671C219.732 28.3998 220 27.0329 220 25.5647C220 22.7302 218.999 20.4955 216.998 18.861Z" fill="black"/>
<path d="M85.4125 0.900902H83.2988H80.6216C80.6216 2.10154 80.6716 11.8245 80.772 30.0676L53.306 0.900902H48.1531V31.0879C48.1531 35.9552 47.5449 36.2212 47.5449 36.2212H48.1531H50.2668H52.9556C52.9556 34.4876 52.9222 24.748 52.8556 7.00444L80.5216 36.2212H85.4245V4.97382C85.5061 1.13624 86.0204 0.900902 86.0204 0.900902H85.4245H85.4125Z" fill="black"/>
<path d="M141.586 0.900902H140.979H140.978H138.864H138.332H136.219H136.217H135.611C135.611 0.900902 136.202 1.16877 136.217 5.85597V31.2661C136.202 35.9533 135.611 36.2212 135.611 36.2212H136.217H136.219H138.332H138.864H140.978H140.979H141.586C141.586 36.2212 140.994 35.9533 140.979 31.2661V5.85597C140.994 1.16877 141.586 0.900902 141.586 0.900902Z" fill="black"/>
<path d="M173.819 31.4598H154.681V6.034H154.684C154.684 1.16699 155.292 0.900967 155.292 0.900967H154.684H154.681H152.57H152.039H149.926H149.91H149.317C149.317 0.900967 149.818 1.13293 149.91 4.82875V32.2932C149.818 35.989 149.317 36.2209 149.317 36.2209H149.91H149.926H152.039H178.376V33.5779V31.4641V31.4598V30.8563C178.376 30.8563 178.121 31.4129 173.819 31.4598Z" fill="black"/>
<path d="M101.802 23.4639L110.607 5.95354L119.262 23.4639H101.802ZM128.92 31.0879H128.887L113.408 0.900902H108.055L91.5441 32.7503C89.712 36.0165 89.144 36.2212 89.144 36.2212H89.7448H89.7519H91.8657H95.3979L99.7007 27.5163H121.413L125.716 36.2212H129.498H131.519H131.612H132.22C132.22 36.2212 131.472 35.9552 128.92 31.0879Z" fill="black"/>
<path d="M49.0871 56.0701C48.6174 55.8038 48.2455 55.4254 47.9709 54.936C47.6962 54.4466 47.5591 53.8873 47.5591 53.2586C47.5591 52.5977 47.7039 52.0248 47.9948 51.5391C48.2851 51.0537 48.6652 50.6855 49.135 50.4351C49.6044 50.1841 50.1098 50.0589 50.6514 50.0589C51.1052 50.0589 51.5188 50.1362 51.8928 50.2912C52.2668 50.4468 52.5635 50.6637 52.7826 50.9423C53.0014 51.2212 53.1106 51.5354 53.1106 51.8852C53.1106 52.1481 53.0431 52.3494 52.9078 52.4884C52.7722 52.6277 52.5933 52.6971 52.3705 52.6971C52.1555 52.6971 51.9766 52.6256 51.8336 52.4823C51.69 52.339 51.6182 52.1598 51.6182 51.945C51.7379 51.8656 51.8213 51.7781 51.8692 51.6824C51.917 51.5869 51.9407 51.4676 51.9407 51.3243C51.9407 51.03 51.8232 50.7889 51.5884 50.602C51.354 50.4148 51.0413 50.3213 50.6514 50.3213C50.0782 50.3213 49.6385 50.5262 49.332 50.9362C49.0254 51.3464 48.8723 51.9214 48.8723 52.6615V53.8554C48.8723 54.5642 49.0218 55.133 49.32 55.5626C49.6189 55.9928 50.0622 56.2076 50.6514 56.2076C51.1926 56.2076 51.6639 56.0545 52.0665 55.7479C52.4678 55.4414 52.717 55.0376 52.8124 54.5359H53.087C52.9753 55.1251 52.6989 55.5945 52.257 55.9449C51.8155 56.2953 51.2798 56.4702 50.6514 56.4702C50.0782 56.4702 49.5569 56.337 49.0871 56.0701Z" fill="black"/>
<path d="M57.0056 56.3508V56.1118L57.9608 55.9928V50.4648H56.9341L55.8955 52.4344H55.561L55.7402 50.166H61.3755L61.5547 52.4344H61.2203L60.1697 50.4648H59.155V55.9928L60.1102 56.1118V56.3508H57.0056Z" fill="black"/>
<path d="M64.2624 59.5269C64.0075 59.3198 63.8801 59.0412 63.8801 58.6908C63.8801 58.4524 63.9498 58.2591 64.0894 58.1118C64.2284 57.9645 64.4014 57.8912 64.6085 57.8912C64.7595 57.8912 64.8951 57.9228 65.0145 57.9866C65.1342 58.0502 65.2296 58.1459 65.3011 58.2729C65.1817 58.4404 65.1219 58.615 65.1219 58.7985C65.1219 58.9578 65.1737 59.0891 65.2774 59.1925C65.3805 59.2956 65.5119 59.3478 65.6711 59.3478C65.8623 59.3478 66.0273 59.2839 66.1667 59.1566C66.3056 59.0293 66.4314 58.8062 66.5428 58.488L67.2593 56.4344L64.4892 50.5364L63.689 50.417V50.178H66.6622V50.417L65.8264 50.5603L67.8202 54.8229L69.2411 50.7153L68.2145 50.417V50.178H70.3632V50.417L69.5513 50.7153L66.877 58.488C66.7101 58.9578 66.5088 59.2999 66.2743 59.5147C66.0393 59.7301 65.703 59.8372 65.2652 59.8372C64.8513 59.8372 64.5171 59.7338 64.2624 59.5269Z" fill="black"/>
<path d="M76.2367 50.4651H74.2542L74.1235 52.3512C74.0674 53.195 74.0039 53.8179 73.9324 54.2198C73.8606 54.6221 73.7728 54.9584 73.6697 55.229C73.5979 55.4042 73.5203 55.553 73.4368 55.6767C73.3534 55.7997 73.2816 55.8896 73.2217 55.9452C73.1622 56.0007 73.1242 56.0369 73.1085 56.0529H76.2367V50.4651ZM78.4573 58.3213H78.1228L77.0725 56.3511H73.2276L72.1889 58.3213H71.8545L72.034 56.0529H72.4157C72.5909 56.0529 72.7624 55.9771 72.9293 55.8255C73.0962 55.6745 73.2435 55.4558 73.3712 55.1692C73.4826 54.9065 73.5718 54.5801 73.6397 54.1901C73.7072 53.8001 73.7691 53.1873 73.8247 52.3512L73.9204 50.9186L72.8339 50.4053V50.1663H78.2661V50.4053L77.4306 50.5243V56.0529H78.2784L78.4573 58.3213Z" fill="black"/>
<path d="M80.7544 56.3508V56.1118L81.5905 55.9928V50.5241L80.7544 50.405V50.166H83.5009V50.405L82.7841 50.5241V55.1689L85.8052 50.7631V50.5241L85.0884 50.405V50.166H87.8349V50.405L86.9988 50.5241V55.9928L87.8349 56.1118V56.3508H85.0884V56.1118L85.8052 55.9928V51.2644L82.7841 55.6822V55.9928L83.5009 56.1118V56.3508H80.7544Z" fill="black"/>
<path d="M94.8048 53.211V50.4651H93.8017C93.3403 50.4651 92.9997 50.5685 92.7806 50.7753C92.5618 50.9824 92.4526 51.3126 92.4526 51.7664V51.9213C92.4526 52.3672 92.564 52.6936 92.7867 52.9004C93.0095 53.1076 93.316 53.211 93.706 53.211H94.8048ZM90.6377 56.333C90.4306 56.2419 90.2517 56.1084 90.1001 55.9332L90.2796 55.754C90.4229 55.8973 90.5619 55.9688 90.6972 55.9688C90.8169 55.9688 90.9065 55.9255 90.9663 55.8375C91.0258 55.7503 91.0832 55.5751 91.1393 55.3125L91.2707 54.6199C91.3422 54.23 91.4735 53.9394 91.6643 53.7482C91.8555 53.5571 92.166 53.43 92.5959 53.3659V53.3064C92.174 53.2346 91.8297 53.0796 91.5628 52.8406C91.2964 52.6019 91.163 52.2518 91.163 51.79C91.163 51.2567 91.3422 50.8529 91.7002 50.5783C92.0583 50.3037 92.6395 50.1662 93.4437 50.1662H96.8584V50.4172L95.9987 50.5366V55.9811L96.8584 56.1121V56.3511H93.945V56.1121L94.8048 55.9811V53.5092H93.706C93.3639 53.5092 93.0991 53.585 92.9122 53.7366C92.7251 53.8875 92.6036 54.1382 92.548 54.4886L92.3691 55.5036C92.3053 55.8537 92.1899 56.1023 92.0227 56.2495C91.8555 56.3968 91.5968 56.4705 91.2464 56.4705C91.0476 56.4705 90.8448 56.4247 90.6377 56.333Z" fill="black"/>
<path d="M103.509 56.3508V56.1118L104.416 55.7537V50.5124L103.58 50.405V50.166H105.897L107.783 54.6316L109.657 50.166H111.855V50.405L111.019 50.5241V55.9928L111.855 56.1118V56.3508H109.108V56.1118L109.825 55.9928V50.5603L107.353 56.3508H107.21L104.715 50.5603V55.7537L105.622 56.1118V56.3508H103.509Z" fill="black"/>
<path d="M117.362 55.7538C117.588 55.6264 117.781 55.4414 117.941 55.1987C118.1 54.9557 118.195 54.6636 118.227 54.3211V53.0794H117.427C116.774 53.0794 116.287 53.2248 115.965 53.5154C115.642 53.8057 115.481 54.2138 115.481 54.7387C115.481 55.1766 115.584 55.4874 115.791 55.6703C115.998 55.8535 116.301 55.9449 116.699 55.9449C116.914 55.9449 117.135 55.8814 117.362 55.7538ZM114.789 56.0701C114.462 55.8038 114.299 55.4076 114.299 54.882C114.299 54.134 114.613 53.6028 115.242 53.2887C115.871 52.9738 116.599 52.8167 117.427 52.8167H118.227V51.8975C118.227 51.4835 118.181 51.1629 118.09 50.9362C117.998 50.7094 117.857 50.5505 117.666 50.4587C117.475 50.3673 117.216 50.3213 116.89 50.3213C116.516 50.3213 116.237 50.3949 116.054 50.5422C115.871 50.6895 115.78 50.8868 115.78 51.1331C115.78 51.3642 115.891 51.5155 116.114 51.5869C116.114 51.7858 116.038 51.961 115.887 52.1126C115.736 52.2635 115.557 52.339 115.35 52.339C115.127 52.339 114.947 52.2776 114.812 52.1543C114.677 52.0309 114.61 51.8419 114.61 51.5869C114.61 51.1255 114.84 50.7554 115.302 50.4768C115.764 50.1979 116.341 50.0589 117.033 50.0589C118.625 50.0589 119.421 50.7514 119.421 52.1362V55.5506C119.421 55.7258 119.459 55.8593 119.535 55.9511C119.61 56.0422 119.72 56.0882 119.863 56.0882C119.998 56.0882 120.106 56.0422 120.185 55.9511C120.265 55.8593 120.305 55.7341 120.305 55.5749H120.555C120.555 55.8535 120.466 56.0723 120.287 56.2312C120.108 56.3904 119.859 56.4702 119.54 56.4702C119.174 56.4702 118.866 56.3647 118.615 56.1539C118.365 55.9428 118.235 55.6148 118.227 55.1689C118.036 55.5749 117.743 55.8934 117.35 56.1241C116.956 56.3548 116.52 56.4702 116.042 56.4702C115.533 56.4702 115.115 56.337 114.789 56.0701Z" fill="black"/>
<path d="M122.843 56.3508V56.1118L123.679 55.9928V50.5241L122.843 50.405V50.166H125.589V50.405L124.873 50.5241V53.0677H127.822V50.5241L127.106 50.405V50.166H129.852V50.405L129.016 50.5241V55.9928L129.852 56.1118V56.3508H127.106V56.1118L127.822 55.9928V53.3659H124.873V55.9928L125.589 56.1118V56.3508H122.843Z" fill="black"/>
<path d="M132.332 56.3508V56.1118L133.168 55.9928V50.5241L132.332 50.405V50.166H135.079V50.405L134.362 50.5241V55.1689L137.383 50.7631V50.5241L136.666 50.405V50.166H139.413V50.405L138.576 50.5241V55.9928L139.413 56.1118V56.3508H136.666V56.1118L137.383 55.9928V51.2644L134.362 55.6822V55.9928L135.079 56.1118V56.3508H132.332Z" fill="black"/>
<path d="M146.681 56.2495C146.514 56.1023 146.399 55.8537 146.335 55.5036L146.096 54.2376C146.025 53.8636 145.905 53.6009 145.738 53.4497C145.571 53.2987 145.344 53.2186 145.057 53.211H143.947V55.9811L144.807 56.1121V56.3511H141.894V56.1121L142.753 55.9811V50.5366L141.894 50.4172V50.1662H144.807V50.4172L143.947 50.5366V52.9363H145.07C145.268 52.9204 145.428 52.8507 145.547 52.7274C145.666 52.604 145.765 52.3914 145.846 52.0886L146.06 51.2291C146.156 50.8391 146.285 50.5464 146.448 50.3513C146.611 50.1564 146.865 50.0592 147.207 50.0592C147.493 50.0592 147.716 50.1365 147.875 50.2914C148.035 50.447 148.114 50.636 148.114 50.8588C148.114 51.0659 148.048 51.2429 147.917 51.3902C147.786 51.5375 147.608 51.6108 147.386 51.6108C147.266 51.6108 147.151 51.5912 147.039 51.551C147.063 51.4795 147.075 51.412 147.075 51.3485C147.075 51.2451 147.043 51.1573 146.98 51.0858C146.916 51.0143 146.837 50.9781 146.741 50.9781C146.55 50.9781 146.422 51.0898 146.359 51.3126L146.132 52.1723C146.028 52.5464 145.893 52.809 145.726 52.9603C146.252 53.0081 146.635 53.1352 146.878 53.3423C147.121 53.5494 147.282 53.8636 147.362 54.2855L147.565 55.3125C147.62 55.5751 147.678 55.7503 147.738 55.8375C147.797 55.9255 147.887 55.9688 148.007 55.9688C148.142 55.9688 148.281 55.8973 148.425 55.754L148.604 55.9332C148.452 56.1084 148.273 56.2419 148.066 56.333C147.859 56.4247 147.656 56.4705 147.457 56.4705C147.107 56.4705 146.849 56.3968 146.681 56.2495Z" fill="black"/>
<path d="M158.487 55.5751C158.79 55.1532 158.941 54.5797 158.941 53.8556V52.6617C158.941 51.9296 158.79 51.3565 158.487 50.9425C158.184 50.5286 157.743 50.3215 157.162 50.3215C156.58 50.3215 156.139 50.5286 155.836 50.9425C155.534 51.3565 155.383 51.9296 155.383 52.6617V53.8556C155.383 54.5797 155.534 55.1532 155.836 55.5751C156.139 55.997 156.58 56.2078 157.162 56.2078C157.743 56.2078 158.184 55.997 158.487 55.5751ZM154.953 55.5871C154.388 54.998 154.093 54.2579 154.069 53.3662H152.935V55.993L153.652 56.1121V56.3511H150.905V56.1121L151.741 55.993V50.5243L150.905 50.4053V50.1662H153.652V50.4053L152.935 50.5243V53.0677H154.069C154.101 52.4706 154.257 51.9453 154.535 51.4918C154.813 51.038 155.182 50.6857 155.64 50.435C156.097 50.1843 156.605 50.0592 157.162 50.0592C157.735 50.0592 158.259 50.1945 158.732 50.4651C159.205 50.7354 159.577 51.1156 159.848 51.6053C160.119 52.0947 160.254 52.6458 160.254 53.2588C160.254 53.8719 160.119 54.4226 159.848 54.912C159.577 55.4021 159.207 55.7838 158.738 56.0584C158.268 56.333 157.743 56.4705 157.162 56.4705C156.302 56.4705 155.566 56.1759 154.953 55.5871Z" fill="black"/>
<path d="M168.072 53.8679V52.6737C168.072 51.1297 167.519 50.3574 166.412 50.3574C166.062 50.3574 165.744 50.4589 165.458 50.662C165.171 50.8649 164.944 51.1373 164.777 51.4795C164.61 51.8222 164.522 52.1919 164.514 52.5902V53.8679C164.514 54.2735 164.596 54.654 164.759 55.008C164.922 55.3618 165.149 55.6447 165.439 55.8555C165.73 56.0666 166.054 56.1719 166.412 56.1719C167.519 56.1719 168.072 55.4042 168.072 53.8679ZM162.484 59.4912L163.32 59.3715V50.5366L162.484 50.4172V50.1782H164.514V51.4322C164.713 51.002 164.982 50.666 165.32 50.423C165.658 50.1803 166.062 50.0591 166.532 50.0591C167.097 50.0591 167.595 50.1926 168.025 50.4589C168.454 50.7259 168.789 51.0999 169.028 51.581C169.266 52.0627 169.386 52.6258 169.386 53.2708C169.386 53.9154 169.266 54.4785 169.028 54.9602C168.789 55.4419 168.454 55.8138 168.025 56.0764C167.595 56.3391 167.097 56.4707 166.532 56.4707C166.062 56.4707 165.658 56.3489 165.32 56.1065C164.982 55.8638 164.713 55.5315 164.514 55.1096V59.3715L165.637 59.4912V59.7302H162.484V59.4912Z" fill="black"/>
<path d="M175.077 55.7538C175.304 55.6264 175.497 55.4414 175.656 55.1987C175.815 54.9557 175.911 54.6636 175.943 54.3211V53.0794H175.143C174.49 53.0794 174.002 53.2248 173.68 53.5154C173.358 53.8057 173.197 54.2138 173.197 54.7387C173.197 55.1766 173.3 55.4874 173.507 55.6703C173.714 55.8535 174.016 55.9449 174.415 55.9449C174.629 55.9449 174.85 55.8814 175.077 55.7538ZM172.504 56.0701C172.178 55.8038 172.014 55.4076 172.014 54.882C172.014 54.134 172.329 53.6028 172.958 53.2887C173.586 52.9738 174.314 52.8167 175.143 52.8167H175.943V51.8975C175.943 51.4835 175.897 51.1629 175.805 50.9362C175.714 50.7094 175.573 50.5505 175.381 50.4587C175.191 50.3673 174.932 50.3213 174.605 50.3213C174.231 50.3213 173.952 50.3949 173.77 50.5422C173.586 50.6895 173.495 50.8868 173.495 51.1331C173.495 51.3642 173.606 51.5155 173.829 51.5869C173.829 51.7858 173.754 51.961 173.603 52.1126C173.451 52.2635 173.272 52.339 173.065 52.339C172.842 52.339 172.663 52.2776 172.528 52.1543C172.392 52.0309 172.325 51.8419 172.325 51.5869C172.325 51.1255 172.556 50.7554 173.017 50.4768C173.479 50.1979 174.056 50.0589 174.748 50.0589C176.34 50.0589 177.137 50.7514 177.137 52.1362V55.5506C177.137 55.7258 177.174 55.8593 177.25 55.9511C177.325 56.0422 177.435 56.0882 177.578 56.0882C177.714 56.0882 177.821 56.0422 177.901 55.9511C177.98 55.8593 178.02 55.7341 178.02 55.5749H178.271C178.271 55.8535 178.181 56.0723 178.002 56.2312C177.823 56.3904 177.574 56.4702 177.256 56.4702C176.889 56.4702 176.581 56.3647 176.33 56.1539C176.08 55.9428 175.95 55.6148 175.943 55.1689C175.751 55.5749 175.459 55.8934 175.065 56.1241C174.671 56.3548 174.235 56.4702 173.758 56.4702C173.248 56.4702 172.83 56.337 172.504 56.0701Z" fill="black"/>
</svg>
